<svg width="53" height="56" viewBox="0 0 53 56" fill="none" xmlns="http://www.w3.org/2000/svg">
<path d="M0 0H51C52.1046 0 53 0.895431 53 2V54C53 55.1046 52.1046 56 51 56H0V0Z" fill="#F2F2F2"/>
<path d="M35.1386 16H16.8616C16.5391 15.9994 16.2435 16.1838 16.0962 16.4776C15.9468 16.7753 15.973 17.1339 16.1639 17.4058L22.8598 27.0682C22.862 27.0715 22.8644 27.0746 22.8667 27.078C23.11 27.4144 23.2417 27.8221 23.2423 28.2408V36.1185C23.2409 36.3517 23.3303 36.5759 23.4907 36.7414C23.6512 36.9067 23.8695 37 24.0972 37C24.2128 36.9998 24.3274 36.9763 24.4344 36.9307L28.1969 35.4612C28.5339 35.3556 28.7577 35.0298 28.7577 34.6375V28.2408C28.7583 27.8221 28.89 27.4144 29.1331 27.078C29.1354 27.0746 29.1378 27.0715 29.14 27.0682L35.8361 17.4056C36.027 17.1339 36.0532 16.7756 35.9038 16.4778C35.7567 16.1838 35.4609 15.9994 35.1386 16Z" fill="black"/>
<path d="M42.5 20L48 26.5L42.5 33" stroke="black" stroke-width="2" stroke-linecap="round" stroke-linejoin="round"/>
</svg>
