<svg width="149" height="369" viewBox="0 0 149 369" fill="none" xmlns="http://www.w3.org/2000/svg">
<g opacity="0.6">
<path d="M68 363.051V334.919C68 315.201 56.5263 301.688 38.2534 301.688C19.9804 301.688 8.50671 315.201 8.50671 334.919L8.50671 363.051H68ZM54.5715 346.223H21.9352L21.9352 335.599C21.9352 325.485 27.9695 318.686 38.2534 318.686C48.5372 318.686 54.5715 325.485 54.5715 335.599V346.223ZM68 243.18V225.672L8.50671 252.019L8.50671 268.592L68 294.854V277.686L56.4413 273.011V247.854L68 243.18ZM44.0327 268.082L24.9949 260.433L44.0327 252.784V268.082ZM68 178.151V160.133L49.3021 172.966C45.7325 165.572 39.2732 161.323 30.5192 161.323C16.9208 161.323 8.50671 171.521 8.50671 187.755L8.50671 214.952H68V198.123H52.1918L52.1918 188.945L68 178.151ZM30.5192 178.321C35.9586 178.321 39.1883 181.805 39.1883 188.775L39.1883 198.123H21.7652V188.775C21.7652 181.805 24.9949 178.321 30.5192 178.321ZM68 146.089V129.261H8.50671V146.089H68ZM68 66.8047V49.2966L8.50671 75.6437V92.2168L68 118.479V101.311L56.4413 96.6363L56.4413 71.4791L68 66.8047ZM44.0327 91.7069L24.9949 84.0577L44.0327 76.4086L44.0327 91.7069ZM142 293.868L82.5067 294.038V307.892L116.843 328.29L82.5067 349.197V363.051H142V347.497H111.318L136.136 332.284V324.805L110.469 309.507L142 309.337V293.868ZM143.19 246.01C143.19 226.972 130.101 212.949 112.253 212.949C94.4054 212.949 81.3168 226.972 81.3168 246.01C81.3168 265.048 94.4054 279.072 112.253 279.072C130.101 279.072 143.19 265.048 143.19 246.01ZM129.251 246.01C129.251 255.019 122.537 262.073 112.253 262.073C101.97 262.073 95.2553 255.019 95.2553 246.01C95.2553 237.001 101.97 229.947 112.253 229.947C122.537 229.947 129.251 237.001 129.251 246.01ZM142 161.385V143.367L123.302 156.201C119.733 148.806 113.273 144.557 104.519 144.557C90.9208 144.557 82.5067 154.756 82.5067 170.989V198.186H142V181.358H126.192V172.179L142 161.385ZM104.519 161.555C109.959 161.555 113.188 165.04 113.188 172.009V181.358H95.7652V172.009C95.7652 165.04 98.9949 161.555 104.519 161.555ZM143.19 99.3221C143.19 80.2843 130.101 66.2609 112.253 66.2609C94.4054 66.2609 81.3168 80.2843 81.3168 99.3221C81.3168 118.36 94.4054 132.383 112.253 132.383C130.101 132.383 143.19 118.36 143.19 99.3221ZM129.251 99.3221C129.251 108.331 122.537 115.385 112.253 115.385C101.97 115.385 95.2553 108.331 95.2553 99.3221C95.2553 90.3131 101.97 83.2589 112.253 83.2589C122.537 83.2589 129.251 90.3131 129.251 99.3221ZM128.657 32.9579L93.0455 2.95631H82.5067L82.5067 54.2055H95.8502V24.9688L131.461 54.9704H142V1.68145H128.657V32.9579Z" fill="#FAF7F7"/>
</g>
</svg>
